<svg width="164" height="121" viewBox="0 0 164 121" fill="none" xmlns="http://www.w3.org/2000/svg">
<g clip-path="url(#clip0)">
<path d="M164 57.8023V63.203C163.949 63.496 163.884 63.7836 163.85 64.0752C163.571 66.4245 163.39 68.7886 163.004 71.1204C161.743 78.6989 159.018 85.7427 154.969 92.2559C148.819 102.145 140.505 109.685 130.058 114.835C124.028 117.821 117.527 119.74 110.842 120.507C109.358 120.678 107.874 120.832 106.389 120.996H48.7748C48.4846 120.942 48.1958 120.855 47.9028 120.838C42.0933 120.472 36.5038 119.147 31.1762 116.816C19.5774 111.739 10.9293 103.511 5.26825 92.1857C2.76673 87.1903 1.14786 81.7997 0.483226 76.2524C0.319901 74.9036 0.160626 73.5561 0 72.2086V66.9686C0.0553416 66.6783 0.140379 66.388 0.157926 66.0964C0.45893 61.0616 1.49152 56.1727 3.3097 51.4741C8.2027 38.8311 16.732 29.4542 28.8532 23.3852C35.1419 20.2352 41.845 18.5799 48.8558 18.2127C52.2883 18.0344 55.7182 18.2262 59.1304 18.6839C59.4395 18.7257 59.885 18.588 60.0996 18.3679C65.0061 13.3547 70.5929 9.28263 76.8924 6.19615C83.0029 3.20282 89.4333 1.27343 96.2025 0.501135C97.7953 0.318862 99.3921 0.168993 100.988 0.00427246H105.899C106.221 0.0542287 106.543 0.110936 106.865 0.148741C109.298 0.432276 111.745 0.610498 114.156 1.0142C121.677 2.27661 128.679 4.97695 135.158 8.9883C145.092 15.1397 152.663 23.4662 157.835 33.9489C160.827 39.9832 162.747 46.4914 163.511 53.1834C163.687 54.7239 163.837 56.2645 164 57.8023ZM72.3017 22.8559C72.4003 22.9855 72.4246 23.0463 72.4664 23.0665C75.8395 24.7296 79.0634 26.6797 82.1026 28.8952C82.2943 29.0343 82.7694 28.9762 83.0015 28.8304C91.3541 23.5364 100.409 21.7096 110.135 23.4351C119.666 25.1255 127.422 29.8889 133.348 37.4971C140.057 46.1072 142.615 55.8432 140.763 66.6756C139.521 73.9355 136.614 80.4487 131.672 85.9047C122.656 95.8514 111.365 99.9654 98.0733 98.2237C89.8909 97.1516 82.8274 93.6209 76.9815 87.7113C69.478 80.1301 61.9259 72.5988 54.4008 65.0379C53.3979 64.0306 52.2816 63.2205 50.8373 63.0437C48.3145 62.7345 46.0253 63.9942 44.936 66.2611C43.9641 68.285 44.0897 70.5668 46.1981 72.6407C54.587 80.8781 62.9018 89.191 71.2813 97.4365C72.7155 98.8549 74.2536 100.164 75.8827 101.353C82.0041 105.799 88.9055 108.258 96.3794 109.248C102.246 110.023 108.066 109.857 113.842 108.558C124.859 106.083 133.985 100.458 141.172 91.7793C147.107 84.6072 150.696 76.3658 151.948 67.1131C152.673 61.8368 152.521 56.4769 151.5 51.2499C149.833 42.7034 146.218 35.056 140.426 28.5469C129.375 16.1347 115.472 10.5936 98.9278 11.8304C92.5635 12.3057 86.5434 14.1756 80.8783 17.142C77.8213 18.7307 74.9456 20.6466 72.3017 22.8559ZM68.2537 109.504C68.026 109.293 67.7992 109.081 67.5734 108.868C64.1436 105.629 60.6949 102.411 57.3055 99.1296C56.6495 98.4951 56.0462 98.1859 55.1175 98.2075C51.685 98.2912 48.2497 98.306 44.8672 97.5418C28.0487 93.7371 18.283 75.4463 24.4812 59.3523C29.3702 46.6621 42.9046 38.9337 56.2513 41.3167C62.2336 42.3847 67.4843 44.9176 71.7942 49.3638C77.0503 54.7914 82.463 60.0638 87.7758 65.4362C88.9852 66.6594 90.3741 67.217 92.0492 66.9781C94.2143 66.6689 95.938 65.6373 96.7209 63.5135C97.4875 61.4235 97.1163 59.4441 95.5344 57.8415C89.9584 52.191 84.5147 46.3988 78.7132 40.9887C67.4614 30.4911 54.1929 27.3695 39.5179 31.8332C19.7799 37.832 8.22835 58.2195 12.738 78.337C16.8481 96.6669 32.8742 109.531 51.6269 109.548C56.8628 109.553 62.1 109.55 67.3358 109.548C67.595 109.548 67.8542 109.525 68.2537 109.504Z" fill="white"/>
</g>
<defs>
<clipPath id="clip0">
<rect width="164" height="121" fill="white"/>
</clipPath>
</defs>
</svg>
