<svg width="95" height="144" viewBox="0 0 95 144" fill="none" xmlns="http://www.w3.org/2000/svg">
<path d="M71.2535 48.0094C77.5514 48.0094 83.5915 45.4803 88.0448 40.9786C92.4981 36.4768 95 30.3711 95 24.0047C95 17.6382 92.4981 11.5326 88.0448 7.03081C83.5915 2.52906 77.5514 0 71.2535 0L23.7604 0C17.4662 0 11.4297 2.52758 6.97895 7.02669C2.52822 11.5258 0.027829 17.6279 0.027829 23.9906C0.027829 30.3533 2.52822 36.4554 6.97895 40.9546C11.4297 45.4537 17.4662 47.9813 23.7604 47.9813C17.4625 47.9813 11.4224 50.5103 6.96911 55.0121C2.51578 59.5138 0.0139179 65.6195 0.0139179 71.9859C0.0139179 78.3524 2.51578 84.4581 6.96911 88.9598C11.4224 93.4616 17.4625 95.9906 23.7604 95.9906C19.0638 95.9878 14.4719 97.393 10.5652 100.028C6.65861 102.664 3.61279 106.411 1.81293 110.796C0.0130746 115.181 -0.459982 120.008 0.453584 124.665C1.36715 129.322 3.62631 133.6 6.94537 136.959C10.2644 140.318 14.4943 142.607 19.1002 143.536C23.706 144.465 28.4809 143.992 32.8211 142.178C37.1612 140.364 40.8717 137.289 43.4833 133.343C46.0949 129.397 47.4903 124.757 47.493 120.009V48.0094H71.2535ZM71.2535 48.0094C66.5596 48.0094 61.9712 49.4164 58.0683 52.0525C54.1655 54.6886 51.1237 58.4355 49.3274 62.8192C47.5311 67.2029 47.0612 72.0266 47.9769 76.6803C48.8926 81.3341 51.1529 85.6088 54.472 88.9639C57.7911 92.3191 62.0198 94.604 66.6235 95.5296C71.2271 96.4553 75.999 95.9802 80.3355 94.1644C84.6721 92.3486 88.3786 89.2737 90.9864 85.3285C93.5942 81.3832 94.9861 76.7449 94.9861 72C94.9853 65.6375 92.4847 59.5358 88.0342 55.0369C83.5836 50.5379 77.5475 48.0101 71.2535 48.0094Z" fill="white"/>
</svg>
